<?xml version="1.0" encoding="UTF-8" standalone="no"?>
<!-- Created with Inkscape (http://www.inkscape.org/) -->

<svg
   width="200"
   height="200"
   viewBox="0 0 52.916667 52.916666"
   version="1.1"
   id="svg1"
   xml:space="preserve"
   sodipodi:docname="4-fan.svg"
   inkscape:version="1.3.2 (091e20e, 2023-11-25, custom)"
   xmlns:inkscape="http://www.inkscape.org/namespaces/inkscape"
   xmlns:sodipodi="http://sodipodi.sourceforge.net/DTD/sodipodi-0.dtd"
   xmlns:xlink="http://www.w3.org/1999/xlink"
   xmlns="http://www.w3.org/2000/svg"
   xmlns:svg="http://www.w3.org/2000/svg"><sodipodi:namedview
     id="namedview1"
     pagecolor="#ffffff"
     bordercolor="#000000"
     borderopacity="0.25"
     inkscape:showpageshadow="2"
     inkscape:pageopacity="0.0"
     inkscape:pagecheckerboard="0"
     inkscape:deskcolor="#d1d1d1"
     inkscape:document-units="mm"
     showguides="true"
     inkscape:zoom="2.9255612"
     inkscape:cx="137.40954"
     inkscape:cy="108.18437"
     inkscape:window-width="1920"
     inkscape:window-height="1017"
     inkscape:window-x="-8"
     inkscape:window-y="-8"
     inkscape:window-maximized="1"
     inkscape:current-layer="g12" /><defs
     id="defs1"><linearGradient
       id="linearGradient9"
       inkscape:collect="always"><stop
         style="stop-color:#a9a9a9;stop-opacity:1;"
         offset="0"
         id="stop9" /><stop
         style="stop-color:#000000;stop-opacity:1;"
         offset="1"
         id="stop10" /></linearGradient><inkscape:path-effect
       effect="copy_rotate"
       starting_point="37.858551,33.850029"
       origin="27.333583,33.850029"
       id="path-effect9"
       is_visible="true"
       lpeversion="1.2"
       lpesatellites=""
       method="normal"
       num_copies="4"
       starting_angle="0"
       rotation_angle="60"
       gap="-0.01"
       copies_to_360="true"
       mirror_copies="false"
       split_items="false"
       link_styles="false" /><inkscape:path-effect
       effect="copy_rotate"
       starting_point="32.63967,22.304225"
       origin="24.798425,22.304225"
       id="path-effect6"
       is_visible="true"
       lpeversion="1.2"
       lpesatellites=""
       method="normal"
       num_copies="8"
       starting_angle="0"
       rotation_angle="45"
       gap="-0.01"
       copies_to_360="true"
       mirror_copies="false"
       split_items="false"
       link_styles="false" /><inkscape:path-effect
       effect="copy_rotate"
       starting_point="13.546789,35.319077"
       origin="9.2774323,35.319077"
       id="path-effect3"
       is_visible="true"
       lpeversion="1.2"
       lpesatellites=""
       method="normal"
       num_copies="20"
       starting_angle="0"
       rotation_angle="18"
       gap="-0.01"
       copies_to_360="true"
       mirror_copies="false"
       split_items="false"
       link_styles="false" /><linearGradient
       id="swatch1"
       inkscape:swatch="solid"><stop
         style="stop-color:#000000;stop-opacity:1;"
         offset="0"
         id="stop1" /></linearGradient><radialGradient
       inkscape:collect="always"
       xlink:href="#linearGradient9"
       id="radialGradient10"
       cx="27.290949"
       cy="33.70158"
       fx="27.290949"
       fy="33.70158"
       r="11.005167"
       gradientUnits="userSpaceOnUse"
       gradientTransform="matrix(1.0828478,0,0,1.0828478,-2.0591837,-3.0915568)" /></defs><g
     inkscape:label="Camada 1"
     inkscape:groupmode="layer"
     id="layer1"><g
       id="g11"><g
         id="g10"
         transform="matrix(0.96508437,0,0,0.96508437,0.09520365,-6.1888418)"><g
           id="g12"
           transform="matrix(0.96818761,0,0,0.96818761,0.91640187,1.5125527)"><path
             style="fill:#000000;fill-opacity:1;stroke:none;stroke-width:0.30589;stroke-dasharray:none;stroke-opacity:1"
             d="m 24.917361,23.786019 c -1.108566,-2.164204 -2.011931,-4.674047 -1.804571,-7.399391 0.25703,-3.378145 1.684781,-5.386889 3.780115,-7.0233997 2.266602,-1.770275 5.496463,-2.3752406 8.361721,-2.1269342 2.534228,0.2196193 5.377219,1.7881084 6.961791,3.1254399 0.925844,0.781386 2.189167,1.948594 1.864404,2.573959 -0.424283,0.817003 -3.075596,-0.08481 -4.881837,-0.05593 -1.437809,0.02295 -4.18469,1.060456 -5.514721,2.711455 -2.709574,3.363457 -3.20962,6.363794 -3.619824,8.207787 -1.373163,-0.521504 -2.877186,-0.845423 -5.147079,-0.01294 z M 17.269573,36.266251 C 15.105369,37.374817 12.595526,38.278182 9.870182,38.070822 6.492037,37.813792 4.483293,36.386041 2.8467823,34.290707 1.0765073,32.024105 0.4715417,28.794244 0.7198481,25.928986 0.9394674,23.394758 2.5079565,20.551767 3.845288,18.967195 c 0.781386,-0.925844 1.948594,-2.189167 2.573959,-1.864404 0.817003,0.424283 -0.08481,3.075596 -0.05593,4.881837 0.02295,1.437809 1.060456,4.18469 2.711455,5.514721 3.363457,2.709574 6.363794,3.20962 8.207787,3.619824 -0.521504,1.373163 -0.845423,2.877186 -0.01294,5.147079 z m 12.480232,7.647788 c 1.108566,2.164204 2.011931,4.674047 1.804571,7.399391 -0.25703,3.378145 -1.684781,5.386889 -3.780115,7.0234 -2.266602,1.770275 -5.496463,2.37524 -8.361721,2.126934 -2.534228,-0.219619 -5.377219,-1.788109 -6.961791,-3.12544 -0.925844,-0.781386 -2.189167,-1.948594 -1.864404,-2.573959 0.424283,-0.817003 3.075596,0.08481 4.881837,0.05593 1.437809,-0.02295 4.18469,-1.060456 5.514721,-2.711455 2.709574,-3.363457 3.20962,-6.363794 3.619824,-8.207787 1.373163,0.521504 2.877186,0.845423 5.147079,0.01294 z m 7.647788,-12.480232 c 2.164204,-1.108566 4.674047,-2.011931 7.399391,-1.804571 3.378145,0.25703 5.386889,1.684781 7.0234,3.780115 1.770275,2.266602 2.37524,5.496463 2.126934,8.361721 -0.219619,2.534228 -1.788109,5.377219 -3.12544,6.961791 -0.781386,0.925844 -1.948594,2.189167 -2.573959,1.864404 -0.817003,-0.424283 0.08481,-3.075596 0.05593,-4.881837 -0.02295,-1.437809 -1.060456,-4.18469 -2.711455,-5.514721 -3.363457,-2.709574 -6.363794,-3.20962 -8.207787,-3.619824 0.521504,-1.373163 0.845423,-2.877186 0.01294,-5.147079 z"
             id="path6"
             sodipodi:nodetypes="csaasssscc"
             inkscape:original-d="m 24.917361,23.786019 c -1.108566,-2.164204 -2.011931,-4.674047 -1.804571,-7.399391 0.25703,-3.378145 1.684781,-5.386889 3.780115,-7.0233997 2.266602,-1.770275 5.496463,-2.3752406 8.361721,-2.1269342 2.534228,0.2196193 5.377219,1.7881084 6.961791,3.1254399 0.925844,0.781386 2.189167,1.948594 1.864404,2.573959 -0.424283,0.817003 -3.075596,-0.08481 -4.881837,-0.05593 -1.437809,0.02295 -4.18469,1.060456 -5.514721,2.711455 -2.709574,3.363457 -3.20962,6.363794 -3.619824,8.207787 -1.373163,-0.521504 -2.877186,-0.845423 -5.147079,-0.01294 z"
             inkscape:path-effect="#path-effect9"
             transform="matrix(1.0471843,0,0,1.0471843,-1.2753064,-1.9843486)" /><circle
             style="fill:url(#radialGradient10);fill-opacity:1;stroke:none;stroke-width:0.829453;stroke-dasharray:none;stroke-opacity:1"
             id="path9"
             cx="27.49276"
             cy="33.402122"
             r="11.502194" /></g></g></g></g></svg>
