<?xml version="1.0" encoding="UTF-8" standalone="no"?>
<!-- Created with Inkscape (http://www.inkscape.org/) -->

<svg
   width="200"
   height="200"
   viewBox="0 0 52.916667 52.916666"
   version="1.1"
   id="svg1"
   xml:space="preserve"
   sodipodi:docname="5-fan.svg"
   inkscape:version="1.3.2 (091e20e, 2023-11-25, custom)"
   xmlns:inkscape="http://www.inkscape.org/namespaces/inkscape"
   xmlns:sodipodi="http://sodipodi.sourceforge.net/DTD/sodipodi-0.dtd"
   xmlns:xlink="http://www.w3.org/1999/xlink"
   xmlns="http://www.w3.org/2000/svg"
   xmlns:svg="http://www.w3.org/2000/svg"><sodipodi:namedview
     id="namedview1"
     pagecolor="#ffffff"
     bordercolor="#000000"
     borderopacity="0.25"
     inkscape:showpageshadow="2"
     inkscape:pageopacity="0.0"
     inkscape:pagecheckerboard="0"
     inkscape:deskcolor="#d1d1d1"
     inkscape:document-units="mm"
     showguides="true"
     inkscape:zoom="2.9255612"
     inkscape:cx="137.40954"
     inkscape:cy="108.18437"
     inkscape:window-width="1920"
     inkscape:window-height="1017"
     inkscape:window-x="-8"
     inkscape:window-y="-8"
     inkscape:window-maximized="1"
     inkscape:current-layer="g12" /><defs
     id="defs1"><linearGradient
       id="linearGradient9"
       inkscape:collect="always"><stop
         style="stop-color:#a9a9a9;stop-opacity:1;"
         offset="0"
         id="stop9" /><stop
         style="stop-color:#000000;stop-opacity:1;"
         offset="1"
         id="stop10" /></linearGradient><inkscape:path-effect
       effect="copy_rotate"
       starting_point="37.858551,33.850029"
       origin="27.333583,33.850029"
       id="path-effect9"
       is_visible="true"
       lpeversion="1.2"
       lpesatellites=""
       method="normal"
       num_copies="5"
       starting_angle="0"
       rotation_angle="90"
       gap="-0.01"
       copies_to_360="true"
       mirror_copies="false"
       split_items="false"
       link_styles="false" /><inkscape:path-effect
       effect="copy_rotate"
       starting_point="32.63967,22.304225"
       origin="24.798425,22.304225"
       id="path-effect6"
       is_visible="true"
       lpeversion="1.2"
       lpesatellites=""
       method="normal"
       num_copies="8"
       starting_angle="0"
       rotation_angle="45"
       gap="-0.01"
       copies_to_360="true"
       mirror_copies="false"
       split_items="false"
       link_styles="false" /><inkscape:path-effect
       effect="copy_rotate"
       starting_point="13.546789,35.319077"
       origin="9.2774323,35.319077"
       id="path-effect3"
       is_visible="true"
       lpeversion="1.2"
       lpesatellites=""
       method="normal"
       num_copies="20"
       starting_angle="0"
       rotation_angle="18"
       gap="-0.01"
       copies_to_360="true"
       mirror_copies="false"
       split_items="false"
       link_styles="false" /><linearGradient
       id="swatch1"
       inkscape:swatch="solid"><stop
         style="stop-color:#000000;stop-opacity:1;"
         offset="0"
         id="stop1" /></linearGradient><radialGradient
       inkscape:collect="always"
       xlink:href="#linearGradient9"
       id="radialGradient10"
       cx="27.290949"
       cy="33.70158"
       fx="27.290949"
       fy="33.70158"
       r="11.005167"
       gradientUnits="userSpaceOnUse"
       gradientTransform="matrix(1.0736121,0,0,1.0736121,-2.7054887,-3.3907063)" /></defs><g
     inkscape:label="Camada 1"
     inkscape:groupmode="layer"
     id="layer1"><g
       id="g11"><g
         id="g10"
         transform="matrix(0.96508437,0,0,0.96508437,0.09520365,-6.1888418)"><g
           id="g12"
           transform="matrix(0.96818761,0,0,0.96818761,0.91640187,1.5125527)"><path
             style="fill:#000000;fill-opacity:1;stroke:none;stroke-width:0.30589;stroke-dasharray:none;stroke-opacity:1"
             d="m 24.917361,23.786019 c -1.108566,-2.164204 -2.011931,-4.674047 -1.804571,-7.399391 0.25703,-3.378145 1.684781,-5.386889 3.780115,-7.0233997 2.266602,-1.770275 5.496463,-2.3752406 8.361721,-2.1269342 2.534228,0.2196193 5.377219,1.7881084 6.961791,3.1254399 0.925844,0.781386 2.189167,1.948594 1.864404,2.573959 -0.424283,0.817003 -3.075596,-0.08481 -4.881837,-0.05593 -1.437809,0.02295 -4.18469,1.060456 -5.514721,2.711455 -2.709574,3.363457 -3.20962,6.363794 -3.619824,8.207787 -1.373163,-0.521504 -2.877186,-0.845423 -5.147079,-0.01294 z m -7.901874,9.252024 c -2.400846,0.385533 -5.067004,0.4691 -7.5948821,-0.570289 C 6.2872247,31.1794 4.817995,29.200792 3.9090746,26.702301 2.9258616,23.999589 3.3485871,20.740864 4.4701539,18.092573 5.4621438,15.750245 7.8323981,13.53109 9.5939356,12.43733 c 1.0292434,-0.639068 2.5297124,-1.479872 3.0241134,-0.977756 0.645905,0.655985 -1.031071,2.898858 -1.561764,4.625619 -0.42248,1.37453 -0.284586,4.307576 0.874605,6.082698 2.361533,3.616323 5.0605,5.01905 6.687482,5.979002 -0.92031,1.144802 -1.693144,2.475117 -1.602842,4.891165 z m 6.357384,10.374161 c -0.375238,2.402476 -1.11965,4.963967 -2.889324,7.046933 -2.193566,2.581898 -4.529351,3.367795 -7.186428,3.460154 -2.874261,0.09991 -5.8428637,-1.30913 -8.0149553,-3.19417 C 3.3610192,49.057863 1.9829259,46.11786 1.487044,44.104548 c -0.2897364,-1.176352 -0.62571852,-2.863205 0.0046,-3.178245 0.8234745,-0.411582 2.4383594,1.876402 3.9166143,2.91472 1.1767015,0.826556 4.0088057,1.601772 6.0552561,1.047858 4.169082,-1.128446 6.337182,-3.26185 7.752915,-4.51256 0.80438,1.229031 1.830766,2.375129 4.156469,3.035846 z m 11.830953,-2.84044 c 2.168936,1.09928 4.375023,2.598801 5.809182,4.925533 1.777682,2.884055 1.803317,5.348374 1.070073,7.903946 -0.793178,2.764458 -3.0506,5.15235 -5.514594,6.635622 -2.179322,1.311906 -5.401285,1.71404 -7.469294,1.563504 -1.208311,-0.08796 -2.916428,-0.289685 -3.02127,-0.986507 -0.13697,-0.910357 2.53806,-1.739177 3.982364,-2.824224 1.149722,-0.86369 2.762165,-3.317626 2.86775,-5.435085 0.215101,-4.313741 -1.143907,-7.034984 -1.895917,-8.767918 1.417444,-0.385219 2.824619,-1.007206 4.17168,-3.014908 z m 0.954548,-12.129649 c 1.715714,-1.723085 3.823562,-3.35782 6.479596,-4.002786 3.292233,-0.799455 5.643861,-0.06232 7.847769,1.424753 2.38405,1.608621 3.957489,4.493457 4.606749,7.29521 0.574249,2.47806 -0.03894,5.666595 -0.821158,7.586871 -0.457041,1.121991 -1.176734,2.68417 -1.871848,2.568551 -0.908127,-0.15105 -0.869753,-2.951274 -1.455378,-4.660187 -0.466134,-1.360345 -2.301694,-3.652177 -4.28289,-4.406925 -4.036142,-1.537593 -7.044155,-1.08601 -8.924656,-0.906312 0.07165,-1.467109 -0.08505,-2.997616 -1.578228,-4.899162 z"
             id="path6"
             sodipodi:nodetypes="csaasssscc"
             inkscape:original-d="m 24.917361,23.786019 c -1.108566,-2.164204 -2.011931,-4.674047 -1.804571,-7.399391 0.25703,-3.378145 1.684781,-5.386889 3.780115,-7.0233997 2.266602,-1.770275 5.496463,-2.3752406 8.361721,-2.1269342 2.534228,0.2196193 5.377219,1.7881084 6.961791,3.1254399 0.925844,0.781386 2.189167,1.948594 1.864404,2.573959 -0.424283,0.817003 -3.075596,-0.08481 -4.881837,-0.05593 -1.437809,0.02295 -4.18469,1.060456 -5.514721,2.711455 -2.709574,3.363457 -3.20962,6.363794 -3.619824,8.207787 -1.373163,-0.521504 -2.877186,-0.845423 -5.147079,-0.01294 z"
             inkscape:path-effect="#path-effect9"
             transform="matrix(1.0382528,0,0,1.0382528,-1.9282971,-2.2929416)" /><circle
             style="fill:url(#radialGradient10);fill-opacity:1;stroke:none;stroke-width:0.822379;stroke-dasharray:none;stroke-opacity:1"
             id="path9"
             cx="26.594402"
             cy="32.791718"
             r="11.404091" /></g></g></g></g></svg>
