<?xml version="1.0" encoding="UTF-8" standalone="no"?>
<!-- Created with Inkscape (http://www.inkscape.org/) -->

<svg
   width="200"
   height="200"
   viewBox="0 0 52.916667 52.916666"
   version="1.1"
   id="svg1"
   xml:space="preserve"
   sodipodi:docname="6-fan.svg"
   inkscape:version="1.3.2 (091e20e, 2023-11-25, custom)"
   xmlns:inkscape="http://www.inkscape.org/namespaces/inkscape"
   xmlns:sodipodi="http://sodipodi.sourceforge.net/DTD/sodipodi-0.dtd"
   xmlns:xlink="http://www.w3.org/1999/xlink"
   xmlns="http://www.w3.org/2000/svg"
   xmlns:svg="http://www.w3.org/2000/svg"><sodipodi:namedview
     id="namedview1"
     pagecolor="#ffffff"
     bordercolor="#000000"
     borderopacity="0.25"
     inkscape:showpageshadow="2"
     inkscape:pageopacity="0.0"
     inkscape:pagecheckerboard="0"
     inkscape:deskcolor="#d1d1d1"
     inkscape:document-units="mm"
     showguides="true"
     inkscape:zoom="2.9255612"
     inkscape:cx="137.40954"
     inkscape:cy="108.18437"
     inkscape:window-width="1920"
     inkscape:window-height="1017"
     inkscape:window-x="-8"
     inkscape:window-y="-8"
     inkscape:window-maximized="1"
     inkscape:current-layer="g10" /><defs
     id="defs1"><linearGradient
       id="linearGradient9"
       inkscape:collect="always"><stop
         style="stop-color:#a9a9a9;stop-opacity:1;"
         offset="0"
         id="stop9" /><stop
         style="stop-color:#000000;stop-opacity:1;"
         offset="1"
         id="stop10" /></linearGradient><inkscape:path-effect
       effect="copy_rotate"
       starting_point="37.858551,33.850029"
       origin="27.333583,33.850029"
       id="path-effect9"
       is_visible="true"
       lpeversion="1.2"
       lpesatellites=""
       method="normal"
       num_copies="6"
       starting_angle="0"
       rotation_angle="60"
       gap="-0.01"
       copies_to_360="true"
       mirror_copies="false"
       split_items="false"
       link_styles="false" /><inkscape:path-effect
       effect="copy_rotate"
       starting_point="32.63967,22.304225"
       origin="24.798425,22.304225"
       id="path-effect6"
       is_visible="true"
       lpeversion="1.2"
       lpesatellites=""
       method="normal"
       num_copies="8"
       starting_angle="0"
       rotation_angle="45"
       gap="-0.01"
       copies_to_360="true"
       mirror_copies="false"
       split_items="false"
       link_styles="false" /><inkscape:path-effect
       effect="copy_rotate"
       starting_point="13.546789,35.319077"
       origin="9.2774323,35.319077"
       id="path-effect3"
       is_visible="true"
       lpeversion="1.2"
       lpesatellites=""
       method="normal"
       num_copies="20"
       starting_angle="0"
       rotation_angle="18"
       gap="-0.01"
       copies_to_360="true"
       mirror_copies="false"
       split_items="false"
       link_styles="false" /><linearGradient
       id="swatch1"
       inkscape:swatch="solid"><stop
         style="stop-color:#000000;stop-opacity:1;"
         offset="0"
         id="stop1" /></linearGradient><radialGradient
       inkscape:collect="always"
       xlink:href="#linearGradient9"
       id="radialGradient10"
       cx="27.290949"
       cy="33.70158"
       fx="27.290949"
       fy="33.70158"
       r="11.005167"
       gradientUnits="userSpaceOnUse"
       gradientTransform="matrix(1.0340565,0,0,1.0340565,-0.74855717,-1.0573193)" /></defs><g
     inkscape:label="Camada 1"
     inkscape:groupmode="layer"
     id="layer1"><g
       id="g11"><g
         id="g10"
         transform="matrix(0.96508437,0,0,0.96508437,0.09520365,-6.1888418)"><g
           id="g12"
           transform="matrix(0.96818761,0,0,0.96818761,0.91640187,1.5125527)"><path
             style="fill:#000000;fill-opacity:1;stroke:none;stroke-width:0.30589;stroke-dasharray:none;stroke-opacity:1"
             d="m 24.917361,23.786019 c -1.108566,-2.164204 -2.011931,-4.674047 -1.804571,-7.399391 0.25703,-3.378145 1.684781,-5.386889 3.780115,-7.0233997 2.266602,-1.770275 5.496463,-2.3752406 8.361721,-2.1269342 2.534228,0.2196193 5.377219,1.7881084 6.961791,3.1254399 0.925844,0.781386 2.189167,1.948594 1.864404,2.573959 -0.424283,0.817003 -3.075596,-0.08481 -4.881837,-0.05593 -1.437809,0.02295 -4.18469,1.060456 -5.514721,2.711455 -2.709574,3.363457 -3.20962,6.363794 -3.619824,8.207787 -1.373163,-0.521504 -2.877186,-0.845423 -5.147079,-0.01294 z m -7.507577,7.124515 C 14.981245,30.788478 12.355975,30.315893 10.099438,28.773642 7.3023932,26.861975 6.2766454,24.621135 5.9070525,21.988267 5.5072504,19.140195 6.5982653,16.04057 8.245934,13.683337 9.7032439,11.598441 12.483091,9.920583 14.43354,9.2169692 15.573162,8.8058578 17.215655,8.2953919 17.594856,8.8893274 18.09026,9.6652688 15.98361,11.510467 15.1055,13.089157 c -0.699029,1.256654 -1.173963,4.154276 -0.409171,6.131616 1.558052,4.028289 3.906397,5.96151 5.29824,7.238753 -1.138217,0.928442 -2.170751,2.069005 -2.584746,4.451031 z m 2.416222,10.06401 c -1.319973,2.042148 -3.041878,4.079406 -5.505775,5.262499 -3.054075,1.466478 -5.5075736,1.234382 -7.9725005,0.238025 -2.6664041,-1.077798 -4.8052502,-3.572457 -6.02283951,-6.177996 -1.07691811,-2.304515 -1.1400622,-5.550862 -0.77418515,-7.591808 0.21377812,-1.192497 0.5929484,-2.870171 1.29691188,-2.901601 0.91968688,-0.04106 1.46435038,2.70595 2.39248168,4.25576 0.7387798,1.233704 3.0107269,3.09382 5.1055494,3.420161 4.2676262,0.664832 7.1160172,-0.402284 8.9180642,-0.969034 0.234946,1.449946 0.706435,2.914428 2.562333,4.463971 z m 9.923799,2.939495 c 1.108566,2.164204 2.011931,4.674047 1.804571,7.399391 -0.25703,3.378145 -1.684781,5.386889 -3.780115,7.0234 -2.266602,1.770275 -5.496463,2.37524 -8.361721,2.126934 -2.534228,-0.219619 -5.377219,-1.788109 -6.961791,-3.12544 -0.925844,-0.781386 -2.189167,-1.948594 -1.864404,-2.573959 0.424283,-0.817003 3.075596,0.08481 4.881837,0.05593 1.437809,-0.02295 4.18469,-1.060456 5.514721,-2.711455 2.709574,-3.363457 3.20962,-6.363794 3.619824,-8.207787 1.373163,0.521504 2.877186,0.845423 5.147079,0.01294 z m 7.507577,-7.124515 c 2.428539,0.122056 5.053809,0.594641 7.310346,2.136892 2.797045,1.911667 3.822793,4.152507 4.192385,6.785375 0.399803,2.848072 -0.691212,5.947697 -2.338881,8.30493 -1.45731,2.084896 -4.237157,3.762754 -6.187606,4.466368 -1.139622,0.411111 -2.782115,0.921577 -3.161316,0.327642 -0.495404,-0.775942 1.611246,-2.62114 2.489356,-4.19983 0.699029,-1.256654 1.173963,-4.154276 0.409171,-6.131616 -1.558052,-4.028289 -3.906397,-5.96151 -5.29824,-7.238753 1.138217,-0.928442 2.170751,-2.069005 2.584746,-4.451031 z M 34.84116,26.725514 c 1.319973,-2.042148 3.041878,-4.079406 5.505775,-5.262499 3.054075,-1.466478 5.507574,-1.234382 7.9725,-0.238025 2.666405,1.077798 4.805251,3.572457 6.02284,6.177996 1.076918,2.304515 1.140062,5.550862 0.774185,7.591808 -0.213778,1.192497 -0.592948,2.870171 -1.296912,2.901601 -0.919687,0.04106 -1.46435,-2.70595 -2.392481,-4.25576 -0.73878,-1.233704 -3.010727,-3.09382 -5.10555,-3.420161 -4.267626,-0.664832 -7.116017,0.402284 -8.918064,0.969034 -0.234946,-1.449946 -0.706435,-2.914428 -2.562333,-4.463971 z"
             id="path6"
             sodipodi:nodetypes="csaasssscc"
             inkscape:original-d="m 24.917361,23.786019 c -1.108566,-2.164204 -2.011931,-4.674047 -1.804571,-7.399391 0.25703,-3.378145 1.684781,-5.386889 3.780115,-7.0233997 2.266602,-1.770275 5.496463,-2.3752406 8.361721,-2.1269342 2.534228,0.2196193 5.377219,1.7881084 6.961791,3.1254399 0.925844,0.781386 2.189167,1.948594 1.864404,2.573959 -0.424283,0.817003 -3.075596,-0.08481 -4.881837,-0.05593 -1.437809,0.02295 -4.18469,1.060456 -5.514721,2.711455 -2.709574,3.363457 -3.20962,6.363794 -3.619824,8.207787 -1.373163,-0.521504 -2.877186,-0.845423 -5.147079,-0.01294 z"
             inkscape:path-effect="#path-effect9" /><circle
             style="fill:url(#radialGradient10);fill-opacity:1;stroke:none;stroke-width:0.792079;stroke-dasharray:none;stroke-opacity:1"
             id="path9"
             cx="27.471825"
             cy="33.792019"
             r="10.983926" /></g></g></g></g></svg>
