<?xml version="1.0" encoding="UTF-8" standalone="no"?>
<!-- Created with Inkscape (http://www.inkscape.org/) -->

<svg
   width="200"
   height="200"
   viewBox="0 0 52.916667 52.916666"
   version="1.1"
   id="svg1"
   xml:space="preserve"
   sodipodi:docname="7-fan.svg"
   inkscape:version="1.3.2 (091e20e, 2023-11-25, custom)"
   xmlns:inkscape="http://www.inkscape.org/namespaces/inkscape"
   xmlns:sodipodi="http://sodipodi.sourceforge.net/DTD/sodipodi-0.dtd"
   xmlns:xlink="http://www.w3.org/1999/xlink"
   xmlns="http://www.w3.org/2000/svg"
   xmlns:svg="http://www.w3.org/2000/svg"><sodipodi:namedview
     id="namedview1"
     pagecolor="#ffffff"
     bordercolor="#000000"
     borderopacity="0.25"
     inkscape:showpageshadow="2"
     inkscape:pageopacity="0.0"
     inkscape:pagecheckerboard="0"
     inkscape:deskcolor="#d1d1d1"
     inkscape:document-units="mm"
     showguides="true"
     inkscape:zoom="2.9255612"
     inkscape:cx="132.28231"
     inkscape:cy="108.18437"
     inkscape:window-width="1920"
     inkscape:window-height="1017"
     inkscape:window-x="-8"
     inkscape:window-y="-8"
     inkscape:window-maximized="1"
     inkscape:current-layer="g12" /><defs
     id="defs1"><linearGradient
       id="linearGradient9"
       inkscape:collect="always"><stop
         style="stop-color:#a9a9a9;stop-opacity:1;"
         offset="0"
         id="stop9" /><stop
         style="stop-color:#000000;stop-opacity:1;"
         offset="1"
         id="stop10" /></linearGradient><inkscape:path-effect
       effect="copy_rotate"
       starting_point="37.245347,34.045021"
       origin="27.333583,33.850029"
       id="path-effect9"
       is_visible="true"
       lpeversion="1.2"
       lpesatellites=""
       method="normal"
       num_copies="7"
       starting_angle="0"
       rotation_angle="120"
       gap="-0.01"
       copies_to_360="true"
       mirror_copies="false"
       split_items="false"
       link_styles="false" /><inkscape:path-effect
       effect="copy_rotate"
       starting_point="32.63967,22.304225"
       origin="24.798425,22.304225"
       id="path-effect6"
       is_visible="true"
       lpeversion="1.2"
       lpesatellites=""
       method="normal"
       num_copies="8"
       starting_angle="0"
       rotation_angle="45"
       gap="-0.01"
       copies_to_360="true"
       mirror_copies="false"
       split_items="false"
       link_styles="false" /><inkscape:path-effect
       effect="copy_rotate"
       starting_point="13.546789,35.319077"
       origin="9.2774323,35.319077"
       id="path-effect3"
       is_visible="true"
       lpeversion="1.2"
       lpesatellites=""
       method="normal"
       num_copies="20"
       starting_angle="0"
       rotation_angle="18"
       gap="-0.01"
       copies_to_360="true"
       mirror_copies="false"
       split_items="false"
       link_styles="false" /><linearGradient
       id="swatch1"
       inkscape:swatch="solid"><stop
         style="stop-color:#000000;stop-opacity:1;"
         offset="0"
         id="stop1" /></linearGradient><radialGradient
       inkscape:collect="always"
       xlink:href="#linearGradient9"
       id="radialGradient10"
       cx="27.290949"
       cy="33.70158"
       fx="27.290949"
       fy="33.70158"
       r="11.005167"
       gradientUnits="userSpaceOnUse"
       gradientTransform="matrix(1.0487732,0,0,1.0487732,-1.1356515,-2.8060344)" /></defs><g
     inkscape:label="Camada 1"
     inkscape:groupmode="layer"
     id="layer1"><g
       id="g11"><g
         id="g10"
         transform="matrix(0.96508437,0,0,0.96508437,0.09520365,-6.1888418)"><g
           id="g12"
           transform="matrix(0.96818761,0,0,0.96818761,0.91640187,1.5125527)"><path
             style="fill:#000000;fill-opacity:1;stroke:none;stroke-width:0.30589;stroke-dasharray:none;stroke-opacity:1"
             d="m 25.115777,23.740441 c -1.065784,-2.185589 -1.919608,-4.712715 -1.658683,-7.433453 0.323425,-3.372436 1.790409,-5.352709 3.917527,-6.9476903 2.300983,-1.7253508 5.542118,-2.2666713 8.401938,-1.9620563 2.529418,0.2694225 5.341008,1.8935269 6.89897,3.2617666 0.910295,0.799445 2.150416,1.991276 1.813416,2.610132 -0.440271,0.8085 -3.073333,-0.145287 -4.879793,-0.15194 -1.437982,-0.0053 -4.204738,0.977942 -5.566985,2.602462 -2.775206,3.309511 -3.334169,6.299433 -3.780563,8.135001 -1.36264,-0.548412 -2.860001,-0.901851 -5.145829,-0.114176 z m -7.068967,5.540314 c -2.373268,-0.52943 -4.881406,-1.43752 -6.845881,-3.337872 -2.435024,-2.355543 -3.0686137,-4.737158 -2.9893843,-7.39466 0.085706,-2.874719 1.6832993,-5.746249 3.7045253,-7.792221 1.787709,-1.8095969 4.810483,-2.9951743 6.851589,-3.3601542 1.192592,-0.213252 2.897605,-0.4397233 3.17133,0.2096048 0.357607,0.8483087 -2.029782,2.3122432 -3.161292,3.7204424 -0.900738,1.120934 -1.857026,3.897134 -1.436273,5.975053 0.857169,4.23319 2.846275,6.53439 4.003058,8.027853 -1.278358,0.723425 -2.488277,1.673744 -3.297637,3.951984 z m -0.07584,8.98107 c -1.893633,1.525402 -4.167405,2.920157 -6.87799,3.271195 C 7.7331316,41.968142 5.4760733,40.97859 3.4477537,39.259721 1.2536442,37.400355 0.00467526,34.360937 -0.33471678,31.505035 -0.63489774,28.979083 0.32284925,25.876588 1.3101053,24.053226 c 0.5768416,-1.065367 1.4628375,-2.539602 2.1411674,-2.348759 0.8861984,0.249323 0.5422362,3.028607 0.9377255,4.791255 0.3147803,1.403116 1.8890656,3.881705 3.7759833,4.848308 3.8440765,1.96919 6.8834155,1.848818 8.7722935,1.875568 -0.231446,1.450509 -0.242829,2.988975 1.033742,5.042218 z m 6.974399,5.658898 c 0.01195,2.431574 -0.315263,5.078896 -1.730832,7.416986 -1.754641,2.898131 -3.935557,4.045794 -6.54406,4.559901 C 13.848764,56.453738 10.693731,55.535175 8.2492904,54.019897 6.0872615,52.679683 4.2587786,49.996512 3.4487607,48.087796 2.9754788,46.972558 2.3752844,45.360688 2.947423,44.949337 c 0.7474649,-0.537407 2.7059394,1.464368 4.3306169,2.254155 1.2932626,0.628724 4.2126521,0.943273 6.1448461,0.07069 3.936318,-1.77765 5.737204,-4.228951 6.935814,-5.689058 0.989749,1.08533 2.185473,2.053448 4.586693,2.33556 z m 8.772772,-1.92454 c 1.90853,1.506722 3.774277,3.413123 4.719676,5.977634 1.17185,3.178789 0.70935,5.599454 -0.51508,7.959404 -1.324512,2.552847 -4.009804,4.446835 -6.71858,5.413216 -2.395825,0.854732 -5.633653,0.611368 -7.630985,0.0546 -1.167014,-0.325313 -2.80144,-0.861047 -2.766325,-1.564836 0.04587,-0.91946 2.832015,-1.20257 4.462466,-1.98037 1.297891,-0.61911 3.364025,-2.705463 3.886515,-4.760161 1.06443,-4.185884 0.27076,-7.122235 -0.123476,-8.969707 1.465643,-0.09713 2.96807,-0.428369 4.68577,-2.129823 z m 3.965067,-8.05876 c 2.367952,-0.552723 5.021711,-0.822801 7.616174,0.037 3.215913,1.065754 4.820101,2.936611 5.901765,5.365313 1.170076,2.627219 0.976604,5.907548 0.04326,8.627883 -0.825516,2.406048 -3.034538,4.785748 -4.715152,6.000187 -0.981962,0.709579 -2.419863,1.6534 -2.948214,1.187141 -0.69026,-0.60914 0.825526,-2.963949 1.233986,-4.723636 0.325183,-1.400742 -0.01778,-4.31693 -1.298441,-6.006512 -2.608994,-3.442061 -5.399571,-4.65233 -7.089785,-5.495984 0.837878,-1.206443 1.515649,-2.587614 1.256367,-4.991406 z m -3.828412,-8.124569 c 1.044257,-2.195956 2.487693,-4.43914 4.777536,-5.931494 2.838328,-1.849815 5.301218,-1.93756 7.87446,-1.268968 2.783573,0.723243 5.22761,2.919756 6.77252,5.345578 1.366424,2.145561 1.849646,5.356363 1.751286,7.42751 -0.05747,1.210144 -0.216079,2.922804 -0.910037,3.045177 -0.906615,0.159874 -1.802601,-2.493414 -2.923709,-3.909909 -0.892397,-1.127586 -3.386198,-2.67766 -5.505646,-2.729836 -4.317792,-0.106297 -7.003915,1.320874 -8.717342,2.116327 -0.420826,-1.407284 -1.078086,-2.798333 -3.119105,-4.094358 z"
             id="path6"
             sodipodi:nodetypes="csaasssscc"
             inkscape:original-d="m 24.917361,23.786019 c -1.108566,-2.164204 -2.011931,-4.674047 -1.804571,-7.399391 0.25703,-3.378145 1.684781,-5.386889 3.780115,-7.0233997 2.266602,-1.770275 5.496463,-2.3752406 8.361721,-2.1269342 2.534228,0.2196193 5.377219,1.7881084 6.961791,3.1254399 0.925844,0.781386 2.189167,1.948594 1.864404,2.573959 -0.424283,0.817003 -3.075596,-0.08481 -4.881837,-0.05593 -1.437809,0.02295 -4.18469,1.060456 -5.514721,2.711455 -2.709574,3.363457 -3.20962,6.363794 -3.619824,8.207787 -1.373163,-0.521504 -2.877186,-0.845423 -5.147079,-0.01294 z"
             inkscape:path-effect="#path-effect9"
             transform="matrix(1.014232,0,0,1.014232,-0.37644082,-1.7336673)" /><circle
             style="fill:url(#radialGradient10);fill-opacity:1;stroke:none;stroke-width:0.803353;stroke-dasharray:none;stroke-opacity:1"
             id="path9"
             cx="27.486359"
             cy="32.539284"
             r="11.140249" /></g></g></g></g></svg>
