<?xml version="1.0" encoding="UTF-8" standalone="no"?>
<!-- Created with Inkscape (http://www.inkscape.org/) -->

<svg
   width="200"
   height="200"
   viewBox="0 0 52.916667 52.916666"
   version="1.1"
   id="svg1"
   xml:space="preserve"
   inkscape:version="1.3.2 (091e20e, 2023-11-25, custom)"
   sodipodi:docname="8-fan.svg"
   xmlns:inkscape="http://www.inkscape.org/namespaces/inkscape"
   xmlns:sodipodi="http://sodipodi.sourceforge.net/DTD/sodipodi-0.dtd"
   xmlns:xlink="http://www.w3.org/1999/xlink"
   xmlns="http://www.w3.org/2000/svg"
   xmlns:svg="http://www.w3.org/2000/svg"><sodipodi:namedview
     id="namedview1"
     pagecolor="#ffffff"
     bordercolor="#000000"
     borderopacity="0.25"
     inkscape:showpageshadow="2"
     inkscape:pageopacity="0.0"
     inkscape:pagecheckerboard="0"
     inkscape:deskcolor="#d1d1d1"
     inkscape:document-units="mm"
     showguides="true"
     inkscape:zoom="2.9255612"
     inkscape:cx="137.40954"
     inkscape:cy="135.52955"
     inkscape:window-width="1920"
     inkscape:window-height="1017"
     inkscape:window-x="-8"
     inkscape:window-y="-8"
     inkscape:window-maximized="1"
     inkscape:current-layer="layer1" /><defs
     id="defs1"><linearGradient
       id="linearGradient9"
       inkscape:collect="always"><stop
         style="stop-color:#a9a9a9;stop-opacity:1;"
         offset="0"
         id="stop9" /><stop
         style="stop-color:#000000;stop-opacity:1;"
         offset="1"
         id="stop10" /></linearGradient><inkscape:path-effect
       effect="copy_rotate"
       starting_point="37.858551,33.850029"
       origin="27.333583,33.850029"
       id="path-effect9"
       is_visible="true"
       lpeversion="1.2"
       lpesatellites=""
       method="normal"
       num_copies="8"
       starting_angle="0"
       rotation_angle="45"
       gap="-0.01"
       copies_to_360="true"
       mirror_copies="false"
       split_items="false"
       link_styles="false" /><inkscape:path-effect
       effect="copy_rotate"
       starting_point="32.63967,22.304225"
       origin="24.798425,22.304225"
       id="path-effect6"
       is_visible="true"
       lpeversion="1.2"
       lpesatellites=""
       method="normal"
       num_copies="8"
       starting_angle="0"
       rotation_angle="45"
       gap="-0.01"
       copies_to_360="true"
       mirror_copies="false"
       split_items="false"
       link_styles="false" /><inkscape:path-effect
       effect="copy_rotate"
       starting_point="13.546789,35.319077"
       origin="9.2774323,35.319077"
       id="path-effect3"
       is_visible="true"
       lpeversion="1.2"
       lpesatellites=""
       method="normal"
       num_copies="20"
       starting_angle="0"
       rotation_angle="18"
       gap="-0.01"
       copies_to_360="true"
       mirror_copies="false"
       split_items="false"
       link_styles="false" /><linearGradient
       id="swatch1"
       inkscape:swatch="solid"><stop
         style="stop-color:#000000;stop-opacity:1;"
         offset="0"
         id="stop1" /></linearGradient><radialGradient
       inkscape:collect="always"
       xlink:href="#linearGradient9"
       id="radialGradient10"
       cx="27.290949"
       cy="33.70158"
       fx="27.290949"
       fy="33.70158"
       r="11.005167"
       gradientUnits="userSpaceOnUse"
       gradientTransform="matrix(1.0340565,0,0,1.0340565,-0.74855717,-1.0573193)" /></defs><g
     inkscape:label="Camada 1"
     inkscape:groupmode="layer"
     id="layer1"><g
       id="g10"
       transform="matrix(0.96508437,0,0,0.96508437,0.09520365,-6.1888418)"><path
         style="fill:#000000;fill-opacity:1;stroke:none;stroke-width:0.30589;stroke-dasharray:none;stroke-opacity:1"
         d="m 24.917361,23.786019 c -1.108566,-2.164204 -2.011931,-4.674047 -1.804571,-7.399391 0.25703,-3.378145 1.684781,-5.386889 3.780115,-7.0233997 2.266602,-1.770275 5.496463,-2.3752406 8.361721,-2.1269342 2.534228,0.2196193 5.377219,1.7881084 6.961791,3.1254399 0.925844,0.781386 2.189167,1.948594 1.864404,2.573959 -0.424283,0.817003 -3.075596,-0.08481 -4.881837,-0.05593 -1.437809,0.02295 -4.18469,1.060456 -5.514721,2.711455 -2.709574,3.363457 -3.20962,6.363794 -3.619824,8.207787 -1.373163,-0.521504 -2.877186,-0.845423 -5.147079,-0.01294 z m -6.408635,4.656207 c -2.314198,-0.746449 -4.7277,-1.8824 -6.508184,-3.956135 C 9.7935808,21.915634 9.3827567,19.485665 9.7071938,16.846853 10.05815,13.992349 11.914231,11.280718 14.115854,9.4302534 16.063118,7.7935779 19.182505,6.8923689 21.248603,6.7175435 22.455797,6.6153963 24.174442,6.5474327 24.387,7.2192746 c 0.277695,0.8777218 -2.234745,2.1148051 -3.491529,3.4124314 -1.000456,1.032913 -2.209167,3.708879 -1.982208,5.816785 0.462365,4.294281 2.230338,6.769426 3.24418,8.363384 -1.339732,0.602214 -2.632282,1.436673 -3.648685,3.630384 z m -1.239153,7.824025 C 15.105369,37.374817 12.595526,38.278182 9.870182,38.070822 6.492037,37.813792 4.483293,36.386041 2.8467823,34.290707 1.0765073,32.024105 0.4715417,28.794244 0.7198481,25.928986 0.9394674,23.394758 2.5079565,20.551767 3.845288,18.967195 c 0.781386,-0.925844 1.948594,-2.189167 2.573959,-1.864404 0.817003,0.424283 -0.08481,3.075596 -0.05593,4.881837 0.02295,1.437809 1.060456,4.18469 2.711455,5.514721 3.363457,2.709574 6.363794,3.20962 8.207787,3.619824 -0.521504,1.373163 -0.845423,2.877186 -0.01294,5.147079 z m 4.656207,6.408635 c -0.746449,2.314198 -1.8824,4.7277 -3.956135,6.508184 -2.570457,2.206961 -5.000426,2.617785 -7.639238,2.293348 C 7.4759035,51.125462 4.7642716,49.269381 2.9138074,47.067758 1.2771319,45.120494 0.37592292,42.001107 0.20109748,39.935009 0.09895025,38.727815 0.03098668,37.00917 0.70282863,36.796612 1.5805504,36.518917 2.8176337,39.031357 4.1152602,40.288141 c 1.0329126,1.000456 3.7088783,2.209167 5.8167848,1.982208 4.294281,-0.462365 6.769426,-2.230338 8.363384,-3.24418 0.602214,1.339732 1.436673,2.632282 3.630384,3.648685 z m 7.824025,1.239153 c 1.108566,2.164204 2.011931,4.674047 1.804571,7.399391 -0.25703,3.378145 -1.684781,5.386889 -3.780115,7.0234 -2.266602,1.770275 -5.496463,2.37524 -8.361721,2.126934 -2.534228,-0.219619 -5.377219,-1.788109 -6.961791,-3.12544 -0.925844,-0.781386 -2.189167,-1.948594 -1.864404,-2.573959 0.424283,-0.817003 3.075596,0.08481 4.881837,0.05593 1.437809,-0.02295 4.18469,-1.060456 5.514721,-2.711455 2.709574,-3.363457 3.20962,-6.363794 3.619824,-8.207787 1.373163,0.521504 2.877186,0.845423 5.147079,0.01294 z m 6.408635,-4.656207 c 2.314198,0.746449 4.7277,1.8824 6.508184,3.956135 2.206961,2.570457 2.617785,5.000426 2.293348,7.639238 -0.350956,2.854504 -2.207037,5.566135 -4.40866,7.4166 -1.947264,1.636675 -5.066651,2.537884 -7.132749,2.71271 -1.207194,0.102147 -2.925839,0.17011 -3.138397,-0.501732 -0.277695,-0.877721 2.234745,-2.114805 3.491529,-3.412431 1.000456,-1.032913 2.209167,-3.708879 1.982208,-5.816785 -0.462365,-4.294281 -2.230338,-6.769426 -3.24418,-8.363384 1.339732,-0.602214 2.632282,-1.436673 3.648685,-3.630384 z m 1.239153,-7.824025 c 2.164204,-1.108566 4.674047,-2.011931 7.399391,-1.804571 3.378145,0.25703 5.386889,1.684781 7.0234,3.780115 1.770275,2.266602 2.37524,5.496463 2.126934,8.361721 -0.219619,2.534228 -1.788109,5.377219 -3.12544,6.961791 -0.781386,0.925844 -1.948594,2.189167 -2.573959,1.864404 -0.817003,-0.424283 0.08481,-3.075596 0.05593,-4.881837 -0.02295,-1.437809 -1.060456,-4.18469 -2.711455,-5.514721 -3.363457,-2.709574 -6.363794,-3.20962 -8.207787,-3.619824 0.521504,-1.373163 0.845423,-2.877186 0.01294,-5.147079 z m -4.656207,-6.408635 c 0.746449,-2.314198 1.8824,-4.7277 3.956135,-6.508184 2.570457,-2.206961 5.000426,-2.617785 7.639238,-2.293348 2.854504,0.350956 5.566135,2.207037 7.4166,4.40866 1.636675,1.947264 2.537884,5.066651 2.71271,7.132749 0.102147,1.207194 0.17011,2.925839 -0.501732,3.138397 -0.877721,0.277695 -2.114805,-2.234745 -3.412431,-3.491529 -1.032913,-1.000456 -3.708879,-2.209167 -5.816785,-1.982208 -4.294281,0.462365 -6.769426,2.230338 -8.363384,3.24418 -0.602214,-1.339732 -1.436673,-2.632282 -3.630384,-3.648685 z"
         id="path6"
         sodipodi:nodetypes="csaasssscc"
         inkscape:path-effect="#path-effect9"
         inkscape:original-d="m 24.917361,23.786019 c -1.108566,-2.164204 -2.011931,-4.674047 -1.804571,-7.399391 0.25703,-3.378145 1.684781,-5.386889 3.780115,-7.0233997 2.266602,-1.770275 5.496463,-2.3752406 8.361721,-2.1269342 2.534228,0.2196193 5.377219,1.7881084 6.961791,3.1254399 0.925844,0.781386 2.189167,1.948594 1.864404,2.573959 -0.424283,0.817003 -3.075596,-0.08481 -4.881837,-0.05593 -1.437809,0.02295 -4.18469,1.060456 -5.514721,2.711455 -2.709574,3.363457 -3.20962,6.363794 -3.619824,8.207787 -1.373163,-0.521504 -2.877186,-0.845423 -5.147079,-0.01294 z" /><circle
         style="fill:url(#radialGradient10);fill-opacity:1;stroke:none;stroke-width:0.792079;stroke-dasharray:none;stroke-opacity:1"
         id="path9"
         cx="27.471825"
         cy="33.792019"
         r="10.983926" /></g></g></svg>
